<svg width="174" height="36" viewBox="0 0 174 36" fill="none" xmlns="http://www.w3.org/2000/svg">
<path d="M0 0H170L174 4V36H5.5L0 30.5V0Z" fill="black"/>
<path d="M41.3636 24.2557C40.0227 24.2557 38.8693 23.9716 37.9034 23.4034C36.9432 22.8295 36.2045 22.0341 35.6875 21.017C35.1761 20 34.9205 18.8295 34.9205 17.5057C34.9205 16.1648 35.179 14.9886 35.696 13.9773C36.2188 12.9602 36.9602 12.1676 37.9205 11.5994C38.8807 11.0256 40.0227 10.7386 41.3466 10.7386C42.4886 10.7386 43.4886 10.946 44.3466 11.3608C45.2045 11.7756 45.8835 12.358 46.3835 13.108C46.8835 13.858 47.1591 14.7386 47.2102 15.75H43.7841C43.6875 15.0966 43.4318 14.571 43.017 14.1733C42.608 13.7699 42.071 13.5682 41.4062 13.5682C40.8438 13.5682 40.3523 13.7216 39.9318 14.0284C39.517 14.3295 39.1932 14.7699 38.9602 15.3494C38.7273 15.929 38.6108 16.6307 38.6108 17.4545C38.6108 18.2898 38.7244 19 38.9517 19.5852C39.1847 20.1705 39.5114 20.6165 39.9318 20.9233C40.3523 21.2301 40.8438 21.3835 41.4062 21.3835C41.821 21.3835 42.1932 21.2983 42.5227 21.1278C42.858 20.9574 43.1335 20.7102 43.3494 20.3864C43.571 20.0568 43.7159 19.6619 43.7841 19.2017H47.2102C47.1534 20.2017 46.8807 21.0824 46.392 21.8438C45.9091 22.5994 45.2415 23.1903 44.3892 23.6165C43.5369 24.0426 42.5284 24.2557 41.3636 24.2557ZM53.2678 24.2472C52.4325 24.2472 51.6882 24.1023 51.0348 23.8125C50.3814 23.517 49.8643 23.0824 49.4837 22.5085C49.1087 21.929 48.9212 21.2074 48.9212 20.3438C48.9212 19.6165 49.0547 19.0057 49.3217 18.5114C49.5888 18.017 49.9524 17.6193 50.4126 17.3182C50.8729 17.017 51.3956 16.7898 51.9808 16.6364C52.5717 16.483 53.1911 16.375 53.8388 16.3125C54.6001 16.233 55.2138 16.1591 55.6797 16.0909C56.1456 16.017 56.4837 15.9091 56.6939 15.767C56.9041 15.625 57.0092 15.4148 57.0092 15.1364V15.0852C57.0092 14.5455 56.8388 14.1278 56.4979 13.8324C56.1626 13.5369 55.6854 13.3892 55.0661 13.3892C54.4126 13.3892 53.8928 13.5341 53.5064 13.8239C53.12 14.108 52.8643 14.4659 52.7393 14.8977L49.3814 14.625C49.5518 13.8295 49.8871 13.142 50.3871 12.5625C50.8871 11.9773 51.532 11.5284 52.3217 11.2159C53.1172 10.8977 54.0376 10.7386 55.0831 10.7386C55.8104 10.7386 56.5064 10.8239 57.1712 10.9943C57.8416 11.1648 58.4354 11.429 58.9524 11.7869C59.4751 12.1449 59.8871 12.6051 60.1882 13.1676C60.4893 13.7244 60.6399 14.392 60.6399 15.1705V24H57.1967V22.1847H57.0945C56.8842 22.5938 56.603 22.9545 56.2507 23.267C55.8984 23.5739 55.4751 23.8153 54.9808 23.9915C54.4865 24.1619 53.9155 24.2472 53.2678 24.2472ZM54.3075 21.7415C54.8416 21.7415 55.3132 21.6364 55.7223 21.4261C56.1314 21.2102 56.4524 20.9205 56.6854 20.5568C56.9183 20.1932 57.0348 19.7812 57.0348 19.321V17.9318C56.9212 18.0057 56.7649 18.0739 56.5661 18.1364C56.3729 18.1932 56.1541 18.2472 55.9098 18.2983C55.6655 18.3437 55.4212 18.3864 55.1768 18.4261C54.9325 18.4602 54.7109 18.4915 54.5121 18.5199C54.0859 18.5824 53.7138 18.6818 53.3956 18.8182C53.0774 18.9545 52.8303 19.1392 52.6541 19.3722C52.478 19.5994 52.3899 19.8835 52.3899 20.2244C52.3899 20.7188 52.5689 21.0966 52.9268 21.358C53.2905 21.6136 53.7507 21.7415 54.3075 21.7415ZM63.4567 24V10.9091H66.9766V13.1932H67.1129C67.3516 12.3807 67.7521 11.767 68.3146 11.3523C68.8771 10.9318 69.5249 10.7216 70.2578 10.7216C70.4396 10.7216 70.6357 10.733 70.8459 10.7557C71.0561 10.7784 71.2408 10.8097 71.3999 10.8494V14.071C71.2294 14.0199 70.9936 13.9744 70.6925 13.9347C70.3913 13.8949 70.1158 13.875 69.8658 13.875C69.3317 13.875 68.8544 13.9915 68.4339 14.2244C68.0192 14.4517 67.6896 14.7699 67.4453 15.179C67.2067 15.5881 67.0874 16.0597 67.0874 16.5938V24H63.4567ZM78.5824 24.2557C77.2585 24.2557 76.1136 23.9744 75.1477 23.4119C74.1875 22.8437 73.446 22.054 72.9233 21.0426C72.4006 20.0256 72.1392 18.8466 72.1392 17.5057C72.1392 16.1534 72.4006 14.9716 72.9233 13.9602C73.446 12.9432 74.1875 12.1534 75.1477 11.5909C76.1136 11.0227 77.2585 10.7386 78.5824 10.7386C79.9062 10.7386 81.0483 11.0227 82.0085 11.5909C82.9744 12.1534 83.7188 12.9432 84.2415 13.9602C84.7642 14.9716 85.0256 16.1534 85.0256 17.5057C85.0256 18.8466 84.7642 20.0256 84.2415 21.0426C83.7188 22.054 82.9744 22.8437 82.0085 23.4119C81.0483 23.9744 79.9062 24.2557 78.5824 24.2557ZM78.5994 21.4432C79.2017 21.4432 79.7045 21.2727 80.108 20.9318C80.5114 20.5852 80.8153 20.1136 81.0199 19.517C81.2301 18.9205 81.3352 18.2415 81.3352 17.4801C81.3352 16.7188 81.2301 16.0398 81.0199 15.4432C80.8153 14.8466 80.5114 14.375 80.108 14.0284C79.7045 13.6818 79.2017 13.5085 78.5994 13.5085C77.9915 13.5085 77.4801 13.6818 77.0653 14.0284C76.6563 14.375 76.3466 14.8466 76.1364 15.4432C75.9318 16.0398 75.8295 16.7188 75.8295 17.4801C75.8295 18.2415 75.9318 18.9205 76.1364 19.517C76.3466 20.1136 76.6563 20.5852 77.0653 20.9318C77.4801 21.2727 77.9915 21.4432 78.5994 21.4432ZM87.4545 24V6.54545H91.0852V13.108H91.196C91.3551 12.7557 91.5852 12.3977 91.8864 12.0341C92.1932 11.6648 92.5909 11.358 93.0795 11.1136C93.5739 10.8636 94.1875 10.7386 94.9205 10.7386C95.875 10.7386 96.7557 10.9886 97.5625 11.4886C98.3693 11.983 99.0142 12.7301 99.4972 13.7301C99.9801 14.7244 100.222 15.9716 100.222 17.4716C100.222 18.9318 99.9858 20.1648 99.5142 21.1705C99.0483 22.1705 98.4119 22.929 97.6051 23.446C96.804 23.9574 95.9063 24.2131 94.9119 24.2131C94.2074 24.2131 93.608 24.0966 93.1136 23.8636C92.625 23.6307 92.2244 23.3381 91.9119 22.9858C91.5994 22.6278 91.3608 22.267 91.196 21.9034H91.0341V24H87.4545ZM91.0085 17.4545C91.0085 18.233 91.1165 18.9119 91.3324 19.4915C91.5483 20.071 91.8608 20.5227 92.2699 20.8466C92.679 21.1648 93.1761 21.3239 93.7614 21.3239C94.3523 21.3239 94.8523 21.1619 95.2614 20.8381C95.6705 20.5085 95.9801 20.054 96.1903 19.4744C96.4063 18.8892 96.5142 18.2159 96.5142 17.4545C96.5142 16.6989 96.4091 16.0341 96.1989 15.4602C95.9886 14.8864 95.679 14.4375 95.2699 14.1136C94.8608 13.7898 94.358 13.6278 93.7614 13.6278C93.1705 13.6278 92.6705 13.7841 92.2614 14.0966C91.858 14.4091 91.5483 14.8523 91.3324 15.4261C91.1165 16 91.0085 16.6761 91.0085 17.4545ZM106.377 24.2472C105.542 24.2472 104.798 24.1023 104.144 23.8125C103.491 23.517 102.974 23.0824 102.593 22.5085C102.218 21.929 102.031 21.2074 102.031 20.3438C102.031 19.6165 102.164 19.0057 102.431 18.5114C102.698 18.017 103.062 17.6193 103.522 17.3182C103.982 17.017 104.505 16.7898 105.09 16.6364C105.681 16.483 106.3 16.375 106.948 16.3125C107.71 16.233 108.323 16.1591 108.789 16.0909C109.255 16.017 109.593 15.9091 109.803 15.767C110.013 15.625 110.119 15.4148 110.119 15.1364V15.0852C110.119 14.5455 109.948 14.1278 109.607 13.8324C109.272 13.5369 108.795 13.3892 108.175 13.3892C107.522 13.3892 107.002 13.5341 106.616 13.8239C106.229 14.108 105.974 14.4659 105.849 14.8977L102.491 14.625C102.661 13.8295 102.996 13.142 103.496 12.5625C103.996 11.9773 104.641 11.5284 105.431 11.2159C106.227 10.8977 107.147 10.7386 108.192 10.7386C108.92 10.7386 109.616 10.8239 110.281 10.9943C110.951 11.1648 111.545 11.429 112.062 11.7869C112.585 12.1449 112.996 12.6051 113.298 13.1676C113.599 13.7244 113.749 14.392 113.749 15.1705V24H110.306V22.1847H110.204C109.994 22.5938 109.712 22.9545 109.36 23.267C109.008 23.5739 108.585 23.8153 108.09 23.9915C107.596 24.1619 107.025 24.2472 106.377 24.2472ZM107.417 21.7415C107.951 21.7415 108.423 21.6364 108.832 21.4261C109.241 21.2102 109.562 20.9205 109.795 20.5568C110.028 20.1932 110.144 19.7812 110.144 19.321V17.9318C110.031 18.0057 109.874 18.0739 109.675 18.1364C109.482 18.1932 109.263 18.2472 109.019 18.2983C108.775 18.3437 108.531 18.3864 108.286 18.4261C108.042 18.4602 107.82 18.4915 107.621 18.5199C107.195 18.5824 106.823 18.6818 106.505 18.8182C106.187 18.9545 105.94 19.1392 105.763 19.3722C105.587 19.5994 105.499 19.8835 105.499 20.2244C105.499 20.7188 105.678 21.0966 106.036 21.358C106.4 21.6136 106.86 21.7415 107.417 21.7415ZM116.566 24V10.9091H120.086V13.1932H120.222C120.461 12.3807 120.862 11.767 121.424 11.3523C121.987 10.9318 122.634 10.7216 123.367 10.7216C123.549 10.7216 123.745 10.733 123.955 10.7557C124.165 10.7784 124.35 10.8097 124.509 10.8494V14.071C124.339 14.0199 124.103 13.9744 123.802 13.9347C123.501 13.8949 123.225 13.875 122.975 13.875C122.441 13.875 121.964 13.9915 121.543 14.2244C121.129 14.4517 120.799 14.7699 120.555 15.179C120.316 15.5881 120.197 16.0597 120.197 16.5938V24H116.566ZM129.744 24.2472C128.909 24.2472 128.165 24.1023 127.511 23.8125C126.858 23.517 126.341 23.0824 125.96 22.5085C125.585 21.929 125.398 21.2074 125.398 20.3438C125.398 19.6165 125.531 19.0057 125.798 18.5114C126.065 18.017 126.429 17.6193 126.889 17.3182C127.349 17.017 127.872 16.7898 128.457 16.6364C129.048 16.483 129.668 16.375 130.315 16.3125C131.077 16.233 131.69 16.1591 132.156 16.0909C132.622 16.017 132.96 15.9091 133.17 15.767C133.381 15.625 133.486 15.4148 133.486 15.1364V15.0852C133.486 14.5455 133.315 14.1278 132.974 13.8324C132.639 13.5369 132.162 13.3892 131.543 13.3892C130.889 13.3892 130.369 13.5341 129.983 13.8239C129.597 14.108 129.341 14.4659 129.216 14.8977L125.858 14.625C126.028 13.8295 126.364 13.142 126.864 12.5625C127.364 11.9773 128.009 11.5284 128.798 11.2159C129.594 10.8977 130.514 10.7386 131.56 10.7386C132.287 10.7386 132.983 10.8239 133.648 10.9943C134.318 11.1648 134.912 11.429 135.429 11.7869C135.952 12.1449 136.364 12.6051 136.665 13.1676C136.966 13.7244 137.116 14.392 137.116 15.1705V24H133.673V22.1847H133.571C133.361 22.5938 133.08 22.9545 132.727 23.267C132.375 23.5739 131.952 23.8153 131.457 23.9915C130.963 24.1619 130.392 24.2472 129.744 24.2472ZM130.784 21.7415C131.318 21.7415 131.79 21.6364 132.199 21.4261C132.608 21.2102 132.929 20.9205 133.162 20.5568C133.395 20.1932 133.511 19.7812 133.511 19.321V17.9318C133.398 18.0057 133.241 18.0739 133.043 18.1364C132.849 18.1932 132.631 18.2472 132.386 18.2983C132.142 18.3437 131.898 18.3864 131.653 18.4261C131.409 18.4602 131.188 18.4915 130.989 18.5199C130.563 18.5824 130.19 18.6818 129.872 18.8182C129.554 18.9545 129.307 19.1392 129.131 19.3722C128.955 19.5994 128.866 19.8835 128.866 20.2244C128.866 20.7188 129.045 21.0966 129.403 21.358C129.767 21.6136 130.227 21.7415 130.784 21.7415ZM146.896 10.9091V13.6364H139.013V10.9091H146.896ZM140.803 7.77273H144.433V19.9773C144.433 20.3125 144.484 20.5739 144.587 20.7614C144.689 20.9432 144.831 21.071 145.013 21.1449C145.2 21.2187 145.416 21.2557 145.661 21.2557C145.831 21.2557 146.001 21.2415 146.172 21.2131C146.342 21.179 146.473 21.1534 146.564 21.1364L147.135 23.8381C146.953 23.8949 146.697 23.9602 146.368 24.0341C146.038 24.1136 145.638 24.1619 145.166 24.179C144.291 24.2131 143.524 24.0966 142.865 23.8295C142.212 23.5625 141.703 23.1477 141.339 22.5852C140.976 22.0227 140.797 21.3125 140.803 20.4545V7.77273ZM155.036 24.2557C153.712 24.2557 152.567 23.9744 151.601 23.4119C150.641 22.8437 149.899 22.054 149.376 21.0426C148.854 20.0256 148.592 18.8466 148.592 17.5057C148.592 16.1534 148.854 14.9716 149.376 13.9602C149.899 12.9432 150.641 12.1534 151.601 11.5909C152.567 11.0227 153.712 10.7386 155.036 10.7386C156.359 10.7386 157.501 11.0227 158.462 11.5909C159.428 12.1534 160.172 12.9432 160.695 13.9602C161.217 14.9716 161.479 16.1534 161.479 17.5057C161.479 18.8466 161.217 20.0256 160.695 21.0426C160.172 22.054 159.428 22.8437 158.462 23.4119C157.501 23.9744 156.359 24.2557 155.036 24.2557ZM155.053 21.4432C155.655 21.4432 156.158 21.2727 156.561 20.9318C156.964 20.5852 157.268 20.1136 157.473 19.517C157.683 18.9205 157.788 18.2415 157.788 17.4801C157.788 16.7188 157.683 16.0398 157.473 15.4432C157.268 14.8466 156.964 14.375 156.561 14.0284C156.158 13.6818 155.655 13.5085 155.053 13.5085C154.445 13.5085 153.933 13.6818 153.518 14.0284C153.109 14.375 152.8 14.8466 152.589 15.4432C152.385 16.0398 152.283 16.7188 152.283 17.4801C152.283 18.2415 152.385 18.9205 152.589 19.517C152.8 20.1136 153.109 20.5852 153.518 20.9318C153.933 21.2727 154.445 21.4432 155.053 21.4432Z" fill="#FFCC00"/>
<path fill-rule="evenodd" clip-rule="evenodd" d="M28.268 26.2107C27.1765 27.3053 25.5829 28.3393 23.2951 28.7793C18.5878 29.6845 14.5307 27.2797 12.6279 25.1658C10.8894 23.2334 9.94154 20.6981 9.78924 19.3796C9.78924 19.3796 10.4072 18.0564 11.8907 16.9131C11.6462 16.163 11.1608 14.4367 11.7423 11.8616C12.4395 8.7763 14.8676 6.43189 17.7582 5.48355C18.9942 5.07796 20.317 4.92759 21.6239 5.08409C22.4838 5.18723 23.3352 5.4344 24.1339 5.79858C26.0382 6.66601 27.6456 8.19664 28.3793 10.017C27.5649 10.3082 26.8124 10.6845 25.585 11.1444C24.9246 9.50752 23.1103 8.29652 21.2669 8.07577C20.6358 8.0007 19.9993 8.03053 19.3827 8.15325C17.6282 8.50286 16.0291 9.60633 15.1818 11.1849C14.9598 11.6005 14.7882 12.0493 14.6813 12.5259C14.3731 13.8874 14.486 14.9025 14.6304 15.5303C14.6335 15.5407 14.635 15.5509 14.6381 15.561C15.8342 15.244 17.2826 15.1566 19.0139 15.4931C19.0139 15.4931 18.0831 19.1629 21.9889 21.6463C25.9727 24.1787 30.4464 22.6727 30.4464 22.6727C30.4464 22.6727 29.9608 24.5141 28.268 26.2107ZM14.0161 19.1432C13.5854 19.4213 13.2549 19.7271 13.0165 19.9903C13.3384 20.9411 13.9691 22.1512 14.8674 23.1499C16.0041 24.412 18.1809 25.8199 20.8117 25.9539C21.4265 25.9855 22.0685 25.9467 22.7269 25.8201C23.0215 25.7635 23.2989 25.6926 23.5611 25.6098C22.5082 25.3127 21.4265 24.8595 20.3733 24.1891C17.5745 22.4104 16.4653 20.2059 16.0733 18.3751C15.2227 18.5049 14.5446 18.8034 14.0161 19.1432Z" fill="#F71500"/>
</svg>
